<svg width="24" height="24" viewBox="0 0 24 24" fill="none" xmlns="http://www.w3.org/2000/svg">
<path fill-rule="evenodd" clip-rule="evenodd" d="M11.293 14.697L6.70011 10.1041C6.31351 9.71753 6.31351 9.09073 6.70011 8.70413C7.08671 8.31753 7.71351 8.31753 8.10011 8.70413L12.0001 12.6041L15.9001 8.70413C16.2867 8.31753 16.9135 8.31753 17.3001 8.70413C17.6867 9.09073 17.6867 9.71753 17.3001 10.1041L12.7072 14.697C12.3167 15.0876 11.6835 15.0876 11.293 14.697Z" fill="white"/>
<mask id="mask0" mask-type="alpha" maskUnits="userSpaceOnUse" x="6" y="8" width="12" height="7">
<path fill-rule="evenodd" clip-rule="evenodd" d="M11.293 14.697L6.70011 10.1041C6.31351 9.71753 6.31351 9.09073 6.70011 8.70413C7.08671 8.31753 7.71351 8.31753 8.10011 8.70413L12.0001 12.6041L15.9001 8.70413C16.2867 8.31753 16.9135 8.31753 17.3001 8.70413C17.6867 9.09073 17.6867 9.71753 17.3001 10.1041L12.7072 14.697C12.3167 15.0876 11.6835 15.0876 11.293 14.697Z" fill="white"/>
</mask>
<g mask="url(#mask0)">
<path fill-rule="evenodd" clip-rule="evenodd" d="M0 24H24V0H0V24Z" fill="#FFEEEE"/>
</g>
</svg>
