<svg width="24" height="24" viewBox="0 0 24 24" fill="none" xmlns="http://www.w3.org/2000/svg">
<path d="M11.9995 8.00001V12C11.9995 12.27 12.1095 12.52 12.2895 12.71L15.0795 15.5C15.2665 15.687 15.5201 15.792 15.7845 15.792C16.049 15.792 16.3026 15.687 16.4895 15.5C16.6765 15.313 16.7816 15.0594 16.7816 14.795C16.7816 14.5306 16.6765 14.277 16.4895 14.09L13.9895 11.59V8.00001C13.9895 7.45001 13.5395 7.00001 12.9895 7.00001C12.7261 7.00264 12.4743 7.10916 12.2889 7.29641C12.1035 7.48366 11.9995 7.73651 11.9995 8.00001ZM13.2595 3.00001C12.0561 2.96564 10.8579 3.17301 9.73597 3.60985C8.61403 4.04669 7.59112 4.70413 6.72774 5.54327C5.86437 6.3824 5.17807 7.38618 4.70946 8.49522C4.24085 9.60426 3.99945 10.796 3.99954 12H2.20954C1.75954 12 1.53954 12.54 1.85954 12.85L4.64954 15.64C4.84954 15.84 5.15954 15.84 5.35954 15.64L8.15954 12.85C8.45954 12.54 8.23954 12 7.78954 12H5.99954C5.99954 8.11001 9.19954 4.94001 13.0995 5.00001C16.8095 5.05001 19.9395 8.18001 19.9995 11.9C20.0595 15.81 16.8995 19 12.9995 19C11.4095 19 9.94954 18.47 8.76954 17.57C8.36954 17.27 7.80954 17.3 7.45954 17.66C7.02954 18.09 7.06954 18.8 7.54954 19.16C9.115 20.3549 11.0302 21.0015 12.9995 21C18.0595 21 22.1395 16.83 21.9995 11.75C21.8695 7.05001 17.9495 3.13001 13.2595 3.00001Z" fill="white"/>
</svg>
