<svg width="24" height="24" viewBox="0 0 24 24" fill="none" xmlns="http://www.w3.org/2000/svg">
<path d="M20.9903 24H3.00782C2.1805 24 1.47416 23.707 0.888791 23.1211C0.303425 22.5352 0.0107422 21.8281 0.0107422 21V3C0.0107422 2.17188 0.303425 1.46484 0.888791 0.878906C1.47416 0.292969 2.1805 0 3.00782 0H20.9903C21.8176 0 22.5239 0.292969 23.1093 0.878906C23.6946 1.46484 23.9873 2.17188 23.9873 3V21C23.9873 21.8281 23.6946 22.5352 23.1093 23.1211C22.5239 23.707 21.8176 24 20.9903 24ZM7.50343 17.25C7.50343 17.0469 7.42928 16.8711 7.28099 16.7227C7.13269 16.5742 6.95708 16.5 6.75416 16.5H5.25562C5.05269 16.5 4.87708 16.5742 4.72879 16.7227C4.5805 16.8711 4.50635 17.0469 4.50635 17.25V20.25C4.50635 20.4531 4.5805 20.6289 4.72879 20.7773C4.87708 20.9258 5.05269 21 5.25562 21H6.75416C6.95708 21 7.13269 20.9258 7.28099 20.7773C7.42928 20.6289 7.50343 20.4531 7.50343 20.25V17.25ZM13.4976 11.25C13.4976 11.0469 13.4234 10.8711 13.2751 10.7227C13.1268 10.5742 12.9512 10.5 12.7483 10.5H11.2498C11.0468 10.5 10.8712 10.5742 10.7229 10.7227C10.5746 10.8711 10.5005 11.0469 10.5005 11.25V20.25C10.5005 20.4531 10.5746 20.6289 10.7229 20.7773C10.8712 20.9258 11.0468 21 11.2498 21H12.7483C12.9512 21 13.1268 20.9258 13.2751 20.7773C13.4234 20.6289 13.4976 20.4531 13.4976 20.25V11.25ZM19.4917 3.75C19.4917 3.54688 19.4176 3.37109 19.2693 3.22266C19.121 3.07422 18.9454 3 18.7424 3H17.2439C17.041 3 16.8654 3.07422 16.7171 3.22266C16.5688 3.37109 16.4946 3.54688 16.4946 3.75V20.25C16.4946 20.4531 16.5688 20.6289 16.7171 20.7773C16.8654 20.9258 17.041 21 17.2439 21H18.7424C18.9454 21 19.121 20.9258 19.2693 20.7773C19.4176 20.6289 19.4917 20.4531 19.4917 20.25V3.75Z" fill="white"/>
</svg>
